<mxfile host="app.diagrams.net" modified="2021-03-27T17:05:50.935Z" agent="5.0 (Windows NT 10.0; Win64; x64) AppleWebKit/537.36 (KHTML, like Gecko) Chrome/89.0.4389.90 Safari/537.36" etag="ii4hVJkroBvBr_q6Zuon" version="14.5.3" type="github" pages="2">
  <diagram id="OApomqe6bLo0m74ET4Si" name="Page-1">
    <mxGraphModel dx="1102" dy="614" grid="0" gridSize="10" guides="1" tooltips="1" connect="1" arrows="1" fold="1" page="0" pageScale="1" pageWidth="827" pageHeight="1169" math="0" shadow="0">
      <root>
        <mxCell id="0" />
        <mxCell id="1" parent="0" />
        <mxCell id="kLt7sw5h4qL-xNmoOspG-14" value="" style="rounded=0;whiteSpace=wrap;html=1;fillColor=#dae8fc;strokeColor=#6c8ebf;shadow=0;sketch=0;glass=0;" parent="1" vertex="1">
          <mxGeometry x="384" y="62.5" width="30" height="300" as="geometry" />
        </mxCell>
        <mxCell id="kLt7sw5h4qL-xNmoOspG-15" value="&lt;font style=&quot;font-size: 24px&quot;&gt;i c e d&lt;/font&gt;" style="text;html=1;align=center;verticalAlign=middle;resizable=0;points=[];autosize=1;" parent="1" vertex="1">
          <mxGeometry x="105" y="60" width="80" height="20" as="geometry" />
        </mxCell>
        <mxCell id="kLt7sw5h4qL-xNmoOspG-16" value="&lt;font style=&quot;font-size: 24px&quot;&gt;j a b s&lt;/font&gt;" style="text;html=1;align=center;verticalAlign=middle;resizable=0;points=[];autosize=1;" parent="1" vertex="1">
          <mxGeometry x="105" y="100" width="80" height="20" as="geometry" />
        </mxCell>
        <mxCell id="kLt7sw5h4qL-xNmoOspG-17" value="&lt;font style=&quot;font-size: 24px&quot;&gt;h a d e&lt;/font&gt;" style="text;html=1;align=center;verticalAlign=middle;resizable=0;points=[];autosize=1;" parent="1" vertex="1">
          <mxGeometry x="100" y="140" width="90" height="20" as="geometry" />
        </mxCell>
        <mxCell id="kLt7sw5h4qL-xNmoOspG-18" value="&lt;font style=&quot;font-size: 24px&quot;&gt;e a r n&lt;/font&gt;" style="text;html=1;align=center;verticalAlign=middle;resizable=0;points=[];autosize=1;" parent="1" vertex="1">
          <mxGeometry x="105" y="180" width="80" height="20" as="geometry" />
        </mxCell>
        <mxCell id="kLt7sw5h4qL-xNmoOspG-19" value="&lt;font style=&quot;font-size: 24px&quot;&gt;e a r l&lt;/font&gt;" style="text;html=1;align=center;verticalAlign=middle;resizable=0;points=[];autosize=1;" parent="1" vertex="1">
          <mxGeometry x="105" y="220" width="80" height="20" as="geometry" />
        </mxCell>
        <mxCell id="kLt7sw5h4qL-xNmoOspG-20" value="&lt;font style=&quot;font-size: 24px&quot;&gt;c a d i&lt;/font&gt;" style="text;html=1;align=center;verticalAlign=middle;resizable=0;points=[];autosize=1;" parent="1" vertex="1">
          <mxGeometry x="105" y="260" width="80" height="20" as="geometry" />
        </mxCell>
        <mxCell id="kLt7sw5h4qL-xNmoOspG-21" value="&lt;font style=&quot;font-size: 24px&quot;&gt;c a f e&lt;/font&gt;" style="text;html=1;align=center;verticalAlign=middle;resizable=0;points=[];autosize=1;" parent="1" vertex="1">
          <mxGeometry x="105" y="300" width="80" height="20" as="geometry" />
        </mxCell>
        <mxCell id="kLt7sw5h4qL-xNmoOspG-22" value="&lt;font style=&quot;font-size: 24px&quot;&gt;a b b s&lt;/font&gt;" style="text;html=1;align=center;verticalAlign=middle;resizable=0;points=[];autosize=1;" parent="1" vertex="1">
          <mxGeometry x="100" y="340" width="90" height="20" as="geometry" />
        </mxCell>
        <mxCell id="kLt7sw5h4qL-xNmoOspG-23" value="" style="html=1;shadow=0;dashed=0;align=center;verticalAlign=middle;shape=mxgraph.arrows2.arrow;dy=0.6;dx=40;notch=0;rounded=0;glass=0;sketch=0;" parent="1" vertex="1">
          <mxGeometry x="200" y="200" width="100" height="25" as="geometry" />
        </mxCell>
        <mxCell id="kLt7sw5h4qL-xNmoOspG-24" value="&lt;font style=&quot;font-size: 24px&quot;&gt;i c e d&lt;/font&gt;" style="text;html=1;align=center;verticalAlign=middle;resizable=0;points=[];autosize=1;" parent="1" vertex="1">
          <mxGeometry x="325" y="60" width="80" height="20" as="geometry" />
        </mxCell>
        <mxCell id="kLt7sw5h4qL-xNmoOspG-25" value="&lt;font style=&quot;font-size: 24px&quot;&gt;j a b s&lt;/font&gt;" style="text;html=1;align=center;verticalAlign=middle;resizable=0;points=[];autosize=1;" parent="1" vertex="1">
          <mxGeometry x="325" y="300" width="80" height="20" as="geometry" />
        </mxCell>
        <mxCell id="kLt7sw5h4qL-xNmoOspG-26" value="&lt;font style=&quot;font-size: 24px&quot;&gt;h a d e&lt;/font&gt;" style="text;html=1;align=center;verticalAlign=middle;resizable=0;points=[];autosize=1;" parent="1" vertex="1">
          <mxGeometry x="320" y="100" width="90" height="20" as="geometry" />
        </mxCell>
        <mxCell id="kLt7sw5h4qL-xNmoOspG-27" value="&lt;font style=&quot;font-size: 24px&quot;&gt;e a r n&lt;/font&gt;" style="text;html=1;align=center;verticalAlign=middle;resizable=0;points=[];autosize=1;" parent="1" vertex="1">
          <mxGeometry x="325" y="260" width="80" height="20" as="geometry" />
        </mxCell>
        <mxCell id="kLt7sw5h4qL-xNmoOspG-28" value="&lt;font style=&quot;font-size: 24px&quot;&gt;e a r l&lt;/font&gt;" style="text;html=1;align=center;verticalAlign=middle;resizable=0;points=[];autosize=1;" parent="1" vertex="1">
          <mxGeometry x="325" y="220" width="80" height="20" as="geometry" />
        </mxCell>
        <mxCell id="kLt7sw5h4qL-xNmoOspG-29" value="&lt;font style=&quot;font-size: 24px&quot;&gt;c a d i&lt;/font&gt;" style="text;html=1;align=center;verticalAlign=middle;resizable=0;points=[];autosize=1;" parent="1" vertex="1">
          <mxGeometry x="320" y="180" width="80" height="20" as="geometry" />
        </mxCell>
        <mxCell id="kLt7sw5h4qL-xNmoOspG-30" value="&lt;font style=&quot;font-size: 24px&quot;&gt;c a f e&lt;/font&gt;" style="text;html=1;align=center;verticalAlign=middle;resizable=0;points=[];autosize=1;" parent="1" vertex="1">
          <mxGeometry x="325" y="140" width="80" height="20" as="geometry" />
        </mxCell>
        <mxCell id="kLt7sw5h4qL-xNmoOspG-31" value="&lt;font style=&quot;font-size: 24px&quot;&gt;a b b s&lt;/font&gt;" style="text;html=1;align=center;verticalAlign=middle;resizable=0;points=[];autosize=1;" parent="1" vertex="1">
          <mxGeometry x="320" y="340" width="90" height="20" as="geometry" />
        </mxCell>
        <mxCell id="kLt7sw5h4qL-xNmoOspG-32" value="&lt;font style=&quot;font-size: 24px&quot;&gt;i c e d&lt;/font&gt;" style="text;html=1;align=center;verticalAlign=middle;resizable=0;points=[];autosize=1;" parent="1" vertex="1">
          <mxGeometry x="105" y="428" width="80" height="20" as="geometry" />
        </mxCell>
        <mxCell id="kLt7sw5h4qL-xNmoOspG-33" value="&lt;font style=&quot;font-size: 24px&quot;&gt;j a b s&lt;/font&gt;" style="text;html=1;align=center;verticalAlign=middle;resizable=0;points=[];autosize=1;" parent="1" vertex="1">
          <mxGeometry x="105" y="668" width="80" height="20" as="geometry" />
        </mxCell>
        <mxCell id="kLt7sw5h4qL-xNmoOspG-34" value="&lt;font style=&quot;font-size: 24px&quot;&gt;h a d e&lt;/font&gt;" style="text;html=1;align=center;verticalAlign=middle;resizable=0;points=[];autosize=1;" parent="1" vertex="1">
          <mxGeometry x="100" y="468" width="90" height="20" as="geometry" />
        </mxCell>
        <mxCell id="kLt7sw5h4qL-xNmoOspG-35" value="&lt;font style=&quot;font-size: 24px&quot;&gt;e a r n&lt;/font&gt;" style="text;html=1;align=center;verticalAlign=middle;resizable=0;points=[];autosize=1;" parent="1" vertex="1">
          <mxGeometry x="105" y="628" width="80" height="20" as="geometry" />
        </mxCell>
        <mxCell id="kLt7sw5h4qL-xNmoOspG-36" value="&lt;font style=&quot;font-size: 24px&quot;&gt;e a r l&lt;/font&gt;" style="text;html=1;align=center;verticalAlign=middle;resizable=0;points=[];autosize=1;" parent="1" vertex="1">
          <mxGeometry x="105" y="588" width="80" height="20" as="geometry" />
        </mxCell>
        <mxCell id="kLt7sw5h4qL-xNmoOspG-37" value="&lt;font style=&quot;font-size: 24px&quot;&gt;c a d i&lt;/font&gt;" style="text;html=1;align=center;verticalAlign=middle;resizable=0;points=[];autosize=1;" parent="1" vertex="1">
          <mxGeometry x="100" y="548" width="80" height="20" as="geometry" />
        </mxCell>
        <mxCell id="kLt7sw5h4qL-xNmoOspG-38" value="&lt;font style=&quot;font-size: 24px&quot;&gt;c a f e&lt;/font&gt;" style="text;html=1;align=center;verticalAlign=middle;resizable=0;points=[];autosize=1;" parent="1" vertex="1">
          <mxGeometry x="105" y="508" width="80" height="20" as="geometry" />
        </mxCell>
        <mxCell id="kLt7sw5h4qL-xNmoOspG-39" value="&lt;font style=&quot;font-size: 24px&quot;&gt;a b b s&lt;/font&gt;" style="text;html=1;align=center;verticalAlign=middle;resizable=0;points=[];autosize=1;" parent="1" vertex="1">
          <mxGeometry x="100" y="708" width="90" height="20" as="geometry" />
        </mxCell>
        <mxCell id="kLt7sw5h4qL-xNmoOspG-41" value="" style="html=1;shadow=0;dashed=0;align=center;verticalAlign=middle;shape=mxgraph.arrows2.arrow;dy=0.6;dx=40;notch=0;rounded=0;glass=0;sketch=0;" parent="1" vertex="1">
          <mxGeometry x="190" y="566" width="100" height="25" as="geometry" />
        </mxCell>
        <mxCell id="kLt7sw5h4qL-xNmoOspG-60" value="" style="rounded=0;whiteSpace=wrap;html=1;fillColor=#dae8fc;strokeColor=#6c8ebf;shadow=0;sketch=0;glass=0;" parent="1" vertex="1">
          <mxGeometry x="370" y="428" width="20" height="300" as="geometry" />
        </mxCell>
        <mxCell id="kLt7sw5h4qL-xNmoOspG-61" value="&lt;font style=&quot;font-size: 24px&quot;&gt;i c e d&lt;/font&gt;" style="text;html=1;align=center;verticalAlign=middle;resizable=0;points=[];autosize=1;" parent="1" vertex="1">
          <mxGeometry x="332" y="588" width="80" height="20" as="geometry" />
        </mxCell>
        <mxCell id="kLt7sw5h4qL-xNmoOspG-62" value="&lt;font style=&quot;font-size: 24px&quot;&gt;h a d e&lt;/font&gt;" style="text;html=1;align=center;verticalAlign=middle;resizable=0;points=[];autosize=1;" parent="1" vertex="1">
          <mxGeometry x="325" y="548" width="90" height="20" as="geometry" />
        </mxCell>
        <mxCell id="kLt7sw5h4qL-xNmoOspG-63" value="&lt;font style=&quot;font-size: 24px&quot;&gt;c a f e&lt;/font&gt;" style="text;html=1;align=center;verticalAlign=middle;resizable=0;points=[];autosize=1;" parent="1" vertex="1">
          <mxGeometry x="327" y="628" width="80" height="20" as="geometry" />
        </mxCell>
        <mxCell id="kLt7sw5h4qL-xNmoOspG-64" value="&lt;font style=&quot;font-size: 24px&quot;&gt;c a d i&lt;/font&gt;" style="text;html=1;align=center;verticalAlign=middle;resizable=0;points=[];autosize=1;" parent="1" vertex="1">
          <mxGeometry x="327" y="508" width="80" height="20" as="geometry" />
        </mxCell>
        <mxCell id="kLt7sw5h4qL-xNmoOspG-65" value="&lt;font style=&quot;font-size: 24px&quot;&gt;e a r l&lt;/font&gt;" style="text;html=1;align=center;verticalAlign=middle;resizable=0;points=[];autosize=1;" parent="1" vertex="1">
          <mxGeometry x="325" y="668" width="80" height="20" as="geometry" />
        </mxCell>
        <mxCell id="kLt7sw5h4qL-xNmoOspG-66" value="&lt;font style=&quot;font-size: 24px&quot;&gt;e a r n&lt;/font&gt;" style="text;html=1;align=center;verticalAlign=middle;resizable=0;points=[];autosize=1;" parent="1" vertex="1">
          <mxGeometry x="330" y="708" width="80" height="20" as="geometry" />
        </mxCell>
        <mxCell id="kLt7sw5h4qL-xNmoOspG-67" value="&lt;font style=&quot;font-size: 24px&quot;&gt;j a b s&lt;/font&gt;" style="text;html=1;align=center;verticalAlign=middle;resizable=0;points=[];autosize=1;" parent="1" vertex="1">
          <mxGeometry x="332" y="428" width="80" height="20" as="geometry" />
        </mxCell>
        <mxCell id="kLt7sw5h4qL-xNmoOspG-68" value="&lt;font style=&quot;font-size: 24px&quot;&gt;a b b s&lt;/font&gt;" style="text;html=1;align=center;verticalAlign=middle;resizable=0;points=[];autosize=1;" parent="1" vertex="1">
          <mxGeometry x="325" y="468" width="90" height="20" as="geometry" />
        </mxCell>
        <mxCell id="kLt7sw5h4qL-xNmoOspG-69" value="&lt;font style=&quot;font-size: 24px&quot;&gt;i c e d&lt;/font&gt;" style="text;html=1;align=center;verticalAlign=middle;resizable=0;points=[];autosize=1;" parent="1" vertex="1">
          <mxGeometry x="107" y="972" width="80" height="20" as="geometry" />
        </mxCell>
        <mxCell id="kLt7sw5h4qL-xNmoOspG-70" value="&lt;font style=&quot;font-size: 24px&quot;&gt;h a d e&lt;/font&gt;" style="text;html=1;align=center;verticalAlign=middle;resizable=0;points=[];autosize=1;" parent="1" vertex="1">
          <mxGeometry x="100" y="932" width="90" height="20" as="geometry" />
        </mxCell>
        <mxCell id="kLt7sw5h4qL-xNmoOspG-71" value="&lt;font style=&quot;font-size: 24px&quot;&gt;c a f e&lt;/font&gt;" style="text;html=1;align=center;verticalAlign=middle;resizable=0;points=[];autosize=1;" parent="1" vertex="1">
          <mxGeometry x="102" y="1012" width="80" height="20" as="geometry" />
        </mxCell>
        <mxCell id="kLt7sw5h4qL-xNmoOspG-72" value="&lt;font style=&quot;font-size: 24px&quot;&gt;c a d i&lt;/font&gt;" style="text;html=1;align=center;verticalAlign=middle;resizable=0;points=[];autosize=1;" parent="1" vertex="1">
          <mxGeometry x="102" y="892" width="80" height="20" as="geometry" />
        </mxCell>
        <mxCell id="kLt7sw5h4qL-xNmoOspG-73" value="&lt;font style=&quot;font-size: 24px&quot;&gt;e a r l&lt;/font&gt;" style="text;html=1;align=center;verticalAlign=middle;resizable=0;points=[];autosize=1;" parent="1" vertex="1">
          <mxGeometry x="100" y="1052" width="80" height="20" as="geometry" />
        </mxCell>
        <mxCell id="kLt7sw5h4qL-xNmoOspG-74" value="&lt;font style=&quot;font-size: 24px&quot;&gt;e a r n&lt;/font&gt;" style="text;html=1;align=center;verticalAlign=middle;resizable=0;points=[];autosize=1;" parent="1" vertex="1">
          <mxGeometry x="105" y="1092" width="80" height="20" as="geometry" />
        </mxCell>
        <mxCell id="kLt7sw5h4qL-xNmoOspG-75" value="&lt;font style=&quot;font-size: 24px&quot;&gt;j a b s&lt;/font&gt;" style="text;html=1;align=center;verticalAlign=middle;resizable=0;points=[];autosize=1;" parent="1" vertex="1">
          <mxGeometry x="107" y="812" width="80" height="20" as="geometry" />
        </mxCell>
        <mxCell id="kLt7sw5h4qL-xNmoOspG-76" value="&lt;font style=&quot;font-size: 24px&quot;&gt;a b b s&lt;/font&gt;" style="text;html=1;align=center;verticalAlign=middle;resizable=0;points=[];autosize=1;" parent="1" vertex="1">
          <mxGeometry x="100" y="852" width="90" height="20" as="geometry" />
        </mxCell>
        <mxCell id="kLt7sw5h4qL-xNmoOspG-77" value="" style="html=1;shadow=0;dashed=0;align=center;verticalAlign=middle;shape=mxgraph.arrows2.arrow;dy=0.6;dx=40;notch=0;rounded=0;glass=0;sketch=0;" parent="1" vertex="1">
          <mxGeometry x="202" y="952" width="100" height="25" as="geometry" />
        </mxCell>
        <mxCell id="kLt7sw5h4qL-xNmoOspG-78" value="" style="rounded=0;whiteSpace=wrap;html=1;fillColor=#dae8fc;strokeColor=#6c8ebf;shadow=0;sketch=0;glass=0;" parent="1" vertex="1">
          <mxGeometry x="353" y="817" width="20" height="300" as="geometry" />
        </mxCell>
        <mxCell id="kLt7sw5h4qL-xNmoOspG-82" value="&lt;font style=&quot;font-size: 24px&quot;&gt;h a d e&lt;/font&gt;" style="text;html=1;align=center;verticalAlign=middle;resizable=0;points=[];autosize=1;" parent="1" vertex="1">
          <mxGeometry x="330" y="894.5" width="90" height="20" as="geometry" />
        </mxCell>
        <mxCell id="kLt7sw5h4qL-xNmoOspG-87" value="&lt;font style=&quot;font-size: 24px&quot;&gt;j a b s&lt;/font&gt;" style="text;html=1;align=center;verticalAlign=middle;resizable=0;points=[];autosize=1;" parent="1" vertex="1">
          <mxGeometry x="338" y="814.5" width="80" height="20" as="geometry" />
        </mxCell>
        <mxCell id="kLt7sw5h4qL-xNmoOspG-89" value="&lt;font style=&quot;font-size: 24px&quot;&gt;c a d i&lt;/font&gt;" style="text;html=1;align=center;verticalAlign=middle;resizable=0;points=[];autosize=1;" parent="1" vertex="1">
          <mxGeometry x="332" y="854.5" width="80" height="20" as="geometry" />
        </mxCell>
        <mxCell id="kLt7sw5h4qL-xNmoOspG-91" value="&lt;font style=&quot;font-size: 24px&quot;&gt;c a f e&lt;/font&gt;" style="text;html=1;align=center;verticalAlign=middle;resizable=0;points=[];autosize=1;" parent="1" vertex="1">
          <mxGeometry x="332" y="934.5" width="80" height="20" as="geometry" />
        </mxCell>
        <mxCell id="kLt7sw5h4qL-xNmoOspG-92" value="&lt;font style=&quot;font-size: 24px&quot;&gt;e a r l&lt;/font&gt;" style="text;html=1;align=center;verticalAlign=middle;resizable=0;points=[];autosize=1;" parent="1" vertex="1">
          <mxGeometry x="330" y="974.5" width="80" height="20" as="geometry" />
        </mxCell>
        <mxCell id="kLt7sw5h4qL-xNmoOspG-93" value="&lt;font style=&quot;font-size: 24px&quot;&gt;e a r n&lt;/font&gt;" style="text;html=1;align=center;verticalAlign=middle;resizable=0;points=[];autosize=1;" parent="1" vertex="1">
          <mxGeometry x="332" y="1014.5" width="80" height="20" as="geometry" />
        </mxCell>
        <mxCell id="kLt7sw5h4qL-xNmoOspG-94" value="&lt;font style=&quot;font-size: 24px&quot;&gt;a b b s&lt;/font&gt;" style="text;html=1;align=center;verticalAlign=middle;resizable=0;points=[];autosize=1;" parent="1" vertex="1">
          <mxGeometry x="330" y="1054.5" width="90" height="20" as="geometry" />
        </mxCell>
        <mxCell id="kLt7sw5h4qL-xNmoOspG-95" value="&lt;font style=&quot;font-size: 24px&quot;&gt;i c e d&lt;/font&gt;" style="text;html=1;align=center;verticalAlign=middle;resizable=0;points=[];autosize=1;" parent="1" vertex="1">
          <mxGeometry x="338" y="1094.5" width="80" height="20" as="geometry" />
        </mxCell>
        <mxCell id="kLt7sw5h4qL-xNmoOspG-97" value="&lt;font style=&quot;font-size: 24px&quot;&gt;i c e d&lt;/font&gt;" style="text;html=1;align=center;verticalAlign=middle;resizable=0;points=[];autosize=1;" parent="1" vertex="1">
          <mxGeometry x="105" y="1518" width="80" height="20" as="geometry" />
        </mxCell>
        <mxCell id="kLt7sw5h4qL-xNmoOspG-98" value="&lt;font style=&quot;font-size: 24px&quot;&gt;a b b s&lt;/font&gt;" style="text;html=1;align=center;verticalAlign=middle;resizable=0;points=[];autosize=1;" parent="1" vertex="1">
          <mxGeometry x="97" y="1478" width="90" height="20" as="geometry" />
        </mxCell>
        <mxCell id="kLt7sw5h4qL-xNmoOspG-99" value="&lt;font style=&quot;font-size: 24px&quot;&gt;e a r n&lt;/font&gt;" style="text;html=1;align=center;verticalAlign=middle;resizable=0;points=[];autosize=1;" parent="1" vertex="1">
          <mxGeometry x="99" y="1438" width="80" height="20" as="geometry" />
        </mxCell>
        <mxCell id="kLt7sw5h4qL-xNmoOspG-100" value="&lt;font style=&quot;font-size: 24px&quot;&gt;e a r l&lt;/font&gt;" style="text;html=1;align=center;verticalAlign=middle;resizable=0;points=[];autosize=1;" parent="1" vertex="1">
          <mxGeometry x="97" y="1398" width="80" height="20" as="geometry" />
        </mxCell>
        <mxCell id="kLt7sw5h4qL-xNmoOspG-101" value="&lt;font style=&quot;font-size: 24px&quot;&gt;c a f e&lt;/font&gt;" style="text;html=1;align=center;verticalAlign=middle;resizable=0;points=[];autosize=1;" parent="1" vertex="1">
          <mxGeometry x="99" y="1358" width="80" height="20" as="geometry" />
        </mxCell>
        <mxCell id="kLt7sw5h4qL-xNmoOspG-102" value="&lt;font style=&quot;font-size: 24px&quot;&gt;h a d e&lt;/font&gt;" style="text;html=1;align=center;verticalAlign=middle;resizable=0;points=[];autosize=1;" parent="1" vertex="1">
          <mxGeometry x="97" y="1318" width="90" height="20" as="geometry" />
        </mxCell>
        <mxCell id="kLt7sw5h4qL-xNmoOspG-103" value="&lt;font style=&quot;font-size: 24px&quot;&gt;c a d i&lt;/font&gt;" style="text;html=1;align=center;verticalAlign=middle;resizable=0;points=[];autosize=1;" parent="1" vertex="1">
          <mxGeometry x="99" y="1278" width="80" height="20" as="geometry" />
        </mxCell>
        <mxCell id="kLt7sw5h4qL-xNmoOspG-104" value="&lt;font style=&quot;font-size: 24px&quot;&gt;j a b s&lt;/font&gt;" style="text;html=1;align=center;verticalAlign=middle;resizable=0;points=[];autosize=1;" parent="1" vertex="1">
          <mxGeometry x="105" y="1238" width="80" height="20" as="geometry" />
        </mxCell>
        <mxCell id="kLt7sw5h4qL-xNmoOspG-105" value="" style="html=1;shadow=0;dashed=0;align=center;verticalAlign=middle;shape=mxgraph.arrows2.arrow;dy=0.6;dx=40;notch=0;rounded=0;glass=0;sketch=0;" parent="1" vertex="1">
          <mxGeometry x="190" y="1378" width="100" height="25" as="geometry" />
        </mxCell>
        <mxCell id="kLt7sw5h4qL-xNmoOspG-106" value="" style="rounded=0;whiteSpace=wrap;html=1;fillColor=#dae8fc;strokeColor=#6c8ebf;shadow=0;sketch=0;glass=0;" parent="1" vertex="1">
          <mxGeometry x="366" y="1243" width="20" height="300" as="geometry" />
        </mxCell>
        <mxCell id="kLt7sw5h4qL-xNmoOspG-107" value="&lt;font style=&quot;font-size: 24px&quot;&gt;a b b s&lt;/font&gt;" style="text;html=1;align=center;verticalAlign=middle;resizable=0;points=[];autosize=1;" parent="1" vertex="1">
          <mxGeometry x="361" y="1238" width="90" height="20" as="geometry" />
        </mxCell>
        <mxCell id="kLt7sw5h4qL-xNmoOspG-108" value="&lt;font style=&quot;font-size: 24px&quot;&gt;c a d i&lt;/font&gt;" style="text;html=1;align=center;verticalAlign=middle;resizable=0;points=[];autosize=1;" parent="1" vertex="1">
          <mxGeometry x="363" y="1278" width="80" height="20" as="geometry" />
        </mxCell>
        <mxCell id="kLt7sw5h4qL-xNmoOspG-109" value="&lt;font style=&quot;font-size: 24px&quot;&gt;c a f e&lt;/font&gt;" style="text;html=1;align=center;verticalAlign=middle;resizable=0;points=[];autosize=1;" parent="1" vertex="1">
          <mxGeometry x="363" y="1318" width="80" height="20" as="geometry" />
        </mxCell>
        <mxCell id="kLt7sw5h4qL-xNmoOspG-110" value="&lt;font style=&quot;font-size: 24px&quot;&gt;e a r l&lt;/font&gt;" style="text;html=1;align=center;verticalAlign=middle;resizable=0;points=[];autosize=1;" parent="1" vertex="1">
          <mxGeometry x="361" y="1358" width="80" height="20" as="geometry" />
        </mxCell>
        <mxCell id="kLt7sw5h4qL-xNmoOspG-111" value="&lt;font style=&quot;font-size: 24px&quot;&gt;e a r n&lt;/font&gt;" style="text;html=1;align=center;verticalAlign=middle;resizable=0;points=[];autosize=1;" parent="1" vertex="1">
          <mxGeometry x="363" y="1398" width="80" height="20" as="geometry" />
        </mxCell>
        <mxCell id="kLt7sw5h4qL-xNmoOspG-112" value="&lt;font style=&quot;font-size: 24px&quot;&gt;h a d e&lt;/font&gt;" style="text;html=1;align=center;verticalAlign=middle;resizable=0;points=[];autosize=1;" parent="1" vertex="1">
          <mxGeometry x="361" y="1441" width="90" height="20" as="geometry" />
        </mxCell>
        <mxCell id="kLt7sw5h4qL-xNmoOspG-113" value="&lt;font style=&quot;font-size: 24px&quot;&gt;i c e d&lt;/font&gt;" style="text;html=1;align=center;verticalAlign=middle;resizable=0;points=[];autosize=1;" parent="1" vertex="1">
          <mxGeometry x="366" y="1478" width="80" height="20" as="geometry" />
        </mxCell>
        <mxCell id="kLt7sw5h4qL-xNmoOspG-114" value="&lt;font style=&quot;font-size: 24px&quot;&gt;j a b s&lt;/font&gt;" style="text;html=1;align=center;verticalAlign=middle;resizable=0;points=[];autosize=1;" parent="1" vertex="1">
          <mxGeometry x="363" y="1518" width="80" height="20" as="geometry" />
        </mxCell>
      </root>
    </mxGraphModel>
  </diagram>
  <diagram id="t9Qg25qg9mcPSA_Qhwsw" name="Page-2">
    <mxGraphModel dx="760" dy="423" grid="0" gridSize="11" guides="1" tooltips="1" connect="1" arrows="1" fold="1" page="0" pageScale="1" pageWidth="827" pageHeight="1169" math="0" shadow="0">
      <root>
        <mxCell id="mHJJVYIOOYlQTrjM51Aj-0" />
        <mxCell id="mHJJVYIOOYlQTrjM51Aj-1" parent="mHJJVYIOOYlQTrjM51Aj-0" />
        <mxCell id="mHJJVYIOOYlQTrjM51Aj-2" value="&lt;h3&gt;S&lt;/h3&gt;" style="ellipse;whiteSpace=wrap;html=1;aspect=fixed;" vertex="1" parent="mHJJVYIOOYlQTrjM51Aj-1">
          <mxGeometry x="176" y="308" width="44" height="44" as="geometry" />
        </mxCell>
        <mxCell id="mHJJVYIOOYlQTrjM51Aj-3" value="B" style="ellipse;whiteSpace=wrap;html=1;aspect=fixed;" vertex="1" parent="mHJJVYIOOYlQTrjM51Aj-1">
          <mxGeometry x="308" y="396" width="44" height="44" as="geometry" />
        </mxCell>
        <mxCell id="mHJJVYIOOYlQTrjM51Aj-4" value="&lt;h3&gt;T&lt;/h3&gt;" style="ellipse;whiteSpace=wrap;html=1;aspect=fixed;" vertex="1" parent="mHJJVYIOOYlQTrjM51Aj-1">
          <mxGeometry x="660" y="308" width="44" height="44" as="geometry" />
        </mxCell>
        <mxCell id="mHJJVYIOOYlQTrjM51Aj-5" value="D" style="ellipse;whiteSpace=wrap;html=1;aspect=fixed;" vertex="1" parent="mHJJVYIOOYlQTrjM51Aj-1">
          <mxGeometry x="530" y="396" width="44" height="44" as="geometry" />
        </mxCell>
        <mxCell id="mHJJVYIOOYlQTrjM51Aj-6" value="C" style="ellipse;whiteSpace=wrap;html=1;aspect=fixed;" vertex="1" parent="mHJJVYIOOYlQTrjM51Aj-1">
          <mxGeometry x="530" y="220" width="44" height="44" as="geometry" />
        </mxCell>
        <mxCell id="mHJJVYIOOYlQTrjM51Aj-7" value="A" style="ellipse;whiteSpace=wrap;html=1;aspect=fixed;" vertex="1" parent="mHJJVYIOOYlQTrjM51Aj-1">
          <mxGeometry x="308" y="220" width="44" height="44" as="geometry" />
        </mxCell>
        <mxCell id="mHJJVYIOOYlQTrjM51Aj-8" value="" style="endArrow=classic;html=1;entryX=0;entryY=1;entryDx=0;entryDy=0;exitX=1;exitY=0;exitDx=0;exitDy=0;" edge="1" parent="mHJJVYIOOYlQTrjM51Aj-1" source="mHJJVYIOOYlQTrjM51Aj-2" target="mHJJVYIOOYlQTrjM51Aj-7">
          <mxGeometry width="50" height="50" relative="1" as="geometry">
            <mxPoint x="374" y="358" as="sourcePoint" />
            <mxPoint x="424" y="308" as="targetPoint" />
          </mxGeometry>
        </mxCell>
        <mxCell id="mHJJVYIOOYlQTrjM51Aj-10" value="" style="endArrow=classic;html=1;entryX=0;entryY=0;entryDx=0;entryDy=0;exitX=1;exitY=1;exitDx=0;exitDy=0;" edge="1" parent="mHJJVYIOOYlQTrjM51Aj-1" source="mHJJVYIOOYlQTrjM51Aj-2" target="mHJJVYIOOYlQTrjM51Aj-3">
          <mxGeometry width="50" height="50" relative="1" as="geometry">
            <mxPoint x="374" y="358" as="sourcePoint" />
            <mxPoint x="424" y="308" as="targetPoint" />
          </mxGeometry>
        </mxCell>
        <mxCell id="mHJJVYIOOYlQTrjM51Aj-11" value="" style="endArrow=classic;html=1;entryX=0.5;entryY=1;entryDx=0;entryDy=0;exitX=0.5;exitY=0;exitDx=0;exitDy=0;" edge="1" parent="mHJJVYIOOYlQTrjM51Aj-1" source="mHJJVYIOOYlQTrjM51Aj-3" target="mHJJVYIOOYlQTrjM51Aj-7">
          <mxGeometry width="50" height="50" relative="1" as="geometry">
            <mxPoint x="385" y="369" as="sourcePoint" />
            <mxPoint x="435" y="319" as="targetPoint" />
          </mxGeometry>
        </mxCell>
        <mxCell id="mHJJVYIOOYlQTrjM51Aj-12" value="" style="endArrow=classic;html=1;entryX=0;entryY=0.5;entryDx=0;entryDy=0;exitX=1;exitY=0.5;exitDx=0;exitDy=0;" edge="1" parent="mHJJVYIOOYlQTrjM51Aj-1" source="mHJJVYIOOYlQTrjM51Aj-7" target="mHJJVYIOOYlQTrjM51Aj-6">
          <mxGeometry width="50" height="50" relative="1" as="geometry">
            <mxPoint x="396" y="380" as="sourcePoint" />
            <mxPoint x="446" y="330" as="targetPoint" />
          </mxGeometry>
        </mxCell>
        <mxCell id="mHJJVYIOOYlQTrjM51Aj-13" value="" style="endArrow=classic;html=1;entryX=0;entryY=0.5;entryDx=0;entryDy=0;exitX=1;exitY=0.5;exitDx=0;exitDy=0;" edge="1" parent="mHJJVYIOOYlQTrjM51Aj-1" source="mHJJVYIOOYlQTrjM51Aj-3" target="mHJJVYIOOYlQTrjM51Aj-5">
          <mxGeometry width="50" height="50" relative="1" as="geometry">
            <mxPoint x="407" y="391" as="sourcePoint" />
            <mxPoint x="457" y="341" as="targetPoint" />
          </mxGeometry>
        </mxCell>
        <mxCell id="mHJJVYIOOYlQTrjM51Aj-14" value="" style="endArrow=classic;html=1;entryX=0.5;entryY=1;entryDx=0;entryDy=0;exitX=0.5;exitY=0;exitDx=0;exitDy=0;" edge="1" parent="mHJJVYIOOYlQTrjM51Aj-1" source="mHJJVYIOOYlQTrjM51Aj-5" target="mHJJVYIOOYlQTrjM51Aj-6">
          <mxGeometry width="50" height="50" relative="1" as="geometry">
            <mxPoint x="418" y="402" as="sourcePoint" />
            <mxPoint x="468" y="352" as="targetPoint" />
          </mxGeometry>
        </mxCell>
        <mxCell id="mHJJVYIOOYlQTrjM51Aj-15" value="" style="endArrow=classic;html=1;entryX=0;entryY=1;entryDx=0;entryDy=0;exitX=1;exitY=0;exitDx=0;exitDy=0;" edge="1" parent="mHJJVYIOOYlQTrjM51Aj-1" source="mHJJVYIOOYlQTrjM51Aj-5" target="mHJJVYIOOYlQTrjM51Aj-4">
          <mxGeometry width="50" height="50" relative="1" as="geometry">
            <mxPoint x="429" y="413" as="sourcePoint" />
            <mxPoint x="479" y="363" as="targetPoint" />
          </mxGeometry>
        </mxCell>
        <mxCell id="mHJJVYIOOYlQTrjM51Aj-16" value="" style="endArrow=classic;html=1;entryX=0;entryY=0;entryDx=0;entryDy=0;exitX=1;exitY=1;exitDx=0;exitDy=0;" edge="1" parent="mHJJVYIOOYlQTrjM51Aj-1" source="mHJJVYIOOYlQTrjM51Aj-6" target="mHJJVYIOOYlQTrjM51Aj-4">
          <mxGeometry width="50" height="50" relative="1" as="geometry">
            <mxPoint x="440" y="424" as="sourcePoint" />
            <mxPoint x="490" y="374" as="targetPoint" />
          </mxGeometry>
        </mxCell>
        <mxCell id="mHJJVYIOOYlQTrjM51Aj-17" value="" style="endArrow=classic;html=1;entryX=0;entryY=0;entryDx=0;entryDy=0;exitX=1;exitY=1;exitDx=0;exitDy=0;" edge="1" parent="mHJJVYIOOYlQTrjM51Aj-1" source="mHJJVYIOOYlQTrjM51Aj-7" target="mHJJVYIOOYlQTrjM51Aj-5">
          <mxGeometry width="50" height="50" relative="1" as="geometry">
            <mxPoint x="451" y="435" as="sourcePoint" />
            <mxPoint x="501" y="385" as="targetPoint" />
          </mxGeometry>
        </mxCell>
        <mxCell id="mHJJVYIOOYlQTrjM51Aj-18" value="4/6" style="text;html=1;align=center;verticalAlign=middle;resizable=0;points=[];autosize=1;" vertex="1" parent="mHJJVYIOOYlQTrjM51Aj-1">
          <mxGeometry x="239" y="274" width="27" height="18" as="geometry" />
        </mxCell>
        <mxCell id="mHJJVYIOOYlQTrjM51Aj-19" value="4/4" style="text;html=1;align=center;verticalAlign=middle;resizable=0;points=[];autosize=1;" vertex="1" parent="mHJJVYIOOYlQTrjM51Aj-1">
          <mxGeometry x="421" y="222" width="27" height="18" as="geometry" />
        </mxCell>
        <mxCell id="mHJJVYIOOYlQTrjM51Aj-20" value="6/7" style="text;html=1;align=center;verticalAlign=middle;resizable=0;points=[];autosize=1;" vertex="1" parent="mHJJVYIOOYlQTrjM51Aj-1">
          <mxGeometry x="610" y="270" width="27" height="18" as="geometry" />
        </mxCell>
        <mxCell id="mHJJVYIOOYlQTrjM51Aj-21" value="2/2" style="text;html=1;align=center;verticalAlign=middle;resizable=0;points=[];autosize=1;" vertex="1" parent="mHJJVYIOOYlQTrjM51Aj-1">
          <mxGeometry x="430" y="311" width="27" height="18" as="geometry" />
        </mxCell>
        <mxCell id="mHJJVYIOOYlQTrjM51Aj-22" value="2/2" style="text;html=1;align=center;verticalAlign=middle;resizable=0;points=[];autosize=1;" vertex="1" parent="mHJJVYIOOYlQTrjM51Aj-1">
          <mxGeometry x="530" y="322" width="27" height="18" as="geometry" />
        </mxCell>
        <mxCell id="mHJJVYIOOYlQTrjM51Aj-23" value="1/4" style="text;html=1;align=center;verticalAlign=middle;resizable=0;points=[];autosize=1;" vertex="1" parent="mHJJVYIOOYlQTrjM51Aj-1">
          <mxGeometry x="606" y="374" width="27" height="18" as="geometry" />
        </mxCell>
        <mxCell id="mHJJVYIOOYlQTrjM51Aj-24" value="1/1" style="text;html=1;align=center;verticalAlign=middle;resizable=0;points=[];autosize=1;" vertex="1" parent="mHJJVYIOOYlQTrjM51Aj-1">
          <mxGeometry x="402" y="417" width="27" height="18" as="geometry" />
        </mxCell>
        <mxCell id="mHJJVYIOOYlQTrjM51Aj-25" value="2/2" style="text;html=1;align=center;verticalAlign=middle;resizable=0;points=[];autosize=1;" vertex="1" parent="mHJJVYIOOYlQTrjM51Aj-1">
          <mxGeometry x="324" y="327" width="27" height="18" as="geometry" />
        </mxCell>
        <mxCell id="mHJJVYIOOYlQTrjM51Aj-26" value="3/3" style="text;html=1;align=center;verticalAlign=middle;resizable=0;points=[];autosize=1;" vertex="1" parent="mHJJVYIOOYlQTrjM51Aj-1">
          <mxGeometry x="239" y="374" width="27" height="18" as="geometry" />
        </mxCell>
        <mxCell id="mHJJVYIOOYlQTrjM51Aj-27" value="&lt;font style=&quot;font-size: 14px&quot;&gt;&lt;b&gt;Flow = 7&lt;/b&gt;&lt;/font&gt;" style="text;html=1;align=center;verticalAlign=middle;resizable=0;points=[];autosize=1;" vertex="1" parent="mHJJVYIOOYlQTrjM51Aj-1">
          <mxGeometry x="702" y="320.5" width="66" height="19" as="geometry" />
        </mxCell>
      </root>
    </mxGraphModel>
  </diagram>
</mxfile>
